PathFileType	4	(X/Y/Z)	C:\Users\Basilio\Documents\Thesis Gigler\squatting_fais\c3dfiles\077\SJ_pre5\markers_experimental.trc
DataRate	CameraRate	NumFrames	NumMarkers	Units	OrigDataRate	OrigDataStartFrame	OrigNumFrames
200.000000	200.000000	4	60	mm	200.000000	678	1356
Frame#	Time	FHD			LBHD			RBHD			C7			T10			CLAV			LSHO			LUUPA			LMUPA			LDUPA			LLEP			LMEP			LRAD			LUL			LRFIN			RSHO			RUPA1			RMUPA			RDUPA			RLEP			RMEP			RRAD			RUL			RUFIN			LASI			RASI			USACR			LSACR			RSACR			LTHI2			LTHI3			LTHI4			LLFC			LMFC			LTIB1			LTIB2			LTIB3			LTIB4			LLMAL			LHEE			LMT1			LMT2			LMT5			RTHI			RTHI2			RTHI3			RTHI4			RLFC			RMFC			RTIB1			RTIB2			RTIB3			RTIB4			RLMAL			RMMAL			RHEE			RMT1			RMT2			RMT5			LTHI1			
		X1	Y1	Z1	X2	Y2	Z2	X3	Y3	Z3	X4	Y4	Z4	X5	Y5	Z5	X6	Y6	Z6	X7	Y7	Z7	X8	Y8	Z8	X9	Y9	Z9	X10	Y10	Z10	X11	Y11	Z11	X12	Y12	Z12	X13	Y13	Z13	X14	Y14	Z14	X15	Y15	Z15	X16	Y16	Z16	X17	Y17	Z17	X18	Y18	Z18	X19	Y19	Z19	X20	Y20	Z20	X21	Y21	Z21	X22	Y22	Z22	X23	Y23	Z23	X24	Y24	Z24	X25	Y25	Z25	X26	Y26	Z26	X27	Y27	Z27	X28	Y28	Z28	X29	Y29	Z29	X30	Y30	Z30	X31	Y31	Z31	X32	Y32	Z32	X33	Y33	Z33	X34	Y34	Z34	X35	Y35	Z35	X36	Y36	Z36	X37	Y37	Z37	X38	Y38	Z38	X39	Y39	Z39	X40	Y40	Z40	X41	Y41	Z41	X42	Y42	Z42	X43	Y43	Z43	X44	Y44	Z44	X45	Y45	Z45	X46	Y46	Z46	X47	Y47	Z47	X48	Y48	Z48	X49	Y49	Z49	X50	Y50	Z50	X51	Y51	Z51	X52	Y52	Z52	X53	Y53	Z53	X54	Y54	Z54	X55	Y55	Z55	X56	Y56	Z56	X57	Y57	Z57	X58	Y58	Z58	X59	Y59	Z59	X60	Y60	Z60	

679	3.39	55.75850677490236	1191.768432617188	-902.9771728515627	-84.65552520751955	1082.991577148438	-970.8707275390627	-92.8541946411133	1084.11865234375	-826.2263183593752	-146.2638092041016	1031.24560546875	-897.609069824219	-388.8422241210939	841.2645263671877	-904.4996337890627	-38.12644577026368	875.782165527344	-891.5378417968752	-23.7811393737793	935.5220947265627	-1065.738037109375	-101.6496047973633	872.085144042969	-1259.711547851563	-111.7018508911133	824.768737792969	-1263.091674804688	-133.8308715820313	846.5377197265627	-1314.417602539063	-179.6177368164063	802.9436645507815	-1353.107177734375	-240.8486785888672	865.671081542969	-1347.897338867188	-406.503143310547	742.7184448242189	-1135.560546875	-392.8214721679689	670.6097412109376	-1172.053833007813	nan	nan	nan	-3.261322498321534	916.8253173828127	-723.6666870117189	-114.4328994750977	848.4614257812502	-527.6977539062501	-137.1120758056641	805.0921630859377	-537.9408569335939	-162.8804779052735	819.9805908203127	-485.4222717285157	-221.2160339355469	780.7398071289065	-462.8404541015626	-275.5030517578126	852.614196777344	-464.0046997070314	-452.6531372070314	734.2445068359376	-659.6312866210939	-429.5209045410157	659.9956054687501	-641.4573364257814	nan	nan	nan	nan	nan	nan	nan	nan	nan	-494.5404357910157	780.2195434570315	-908.6704101562502	-518.7055664062501	770.3304443359377	-939.0866699218752	-529.7609252929689	767.5647583007814	-885.2252197265627	-325.7086181640626	571.0586547851564	-1184.509399414063	-300.0481262207032	608.9810180664064	-1166.538940429688	-294.7527770996094	522.3865966796876	-1202.522338867188	-158.9763946533203	472.2507629394532	-1231.783447265625	-115.8303680419922	426.8708801269532	-1111.1376953125	-203.4671478271485	260.5921936035157	-1178.103515625	-274.7506713867188	253.528305053711	-1236.3671875	-244.1196899414063	230.4411773681641	-1211.674682617188	-286.8739929199219	165.2019500732422	-1178.27978515625	-407.7409667968751	105.8363647460938	-1205.184204101563	-461.4296264648439	49.55104446411134	-1147.481811523438	-250.6306915283204	54.3877296447754	-1201.754028320313	-263.1614379882813	61.30485153198244	-1243.0517578125	-357.2255249023438	92.5039749145508	-1132.927978515625	-325.0010070800782	527.1771240234376	-615.3979492187501	-257.0713195800782	545.3757324218751	-600.7409667968751	-241.6781463623047	573.3828125000001	-613.3485107421876	-200.5753021240235	486.1902770996095	-588.9349975585939	-165.3531646728516	449.5709838867189	-580.0191040039064	-112.8930740356446	429.9919738769532	-697.0747680664064	-173.3663787841797	318.8350830078126	-593.6456909179689	-277.5494689941407	286.5576171875001	-586.0266113281251	-238.9683685302735	260.4528808593751	-596.8812255859376	-245.263168334961	217.6620483398438	-636.4948730468751	-401.3528442382814	98.9989929199219	-630.3868408203126	-350.6046142578126	86.96096038818361	-705.8967285156251	-455.719940185547	48.39101791381837	-696.4918823242189	-246.9926757812501	58.62660598754884	-605.7378540039064	-263.7167358398438	61.27806854248048	-571.6754150390626	-295.8428344726563	43.22655105590821	-530.9489135742189	-406.1125793457032	573.6194458007814	-1158.265258789063	
680	3.395	55.98222732543947	1191.57568359375	-903.033630371094	-84.44094848632814	1082.965209960938	-970.9958496093752	-92.65200805664064	1083.8994140625	-826.207458496094	-146.0885162353516	1031.186401367188	-897.5598144531252	-388.7106933593751	841.270446777344	-904.4705810546877	-38.13949584960938	875.7341308593752	-891.6091918945315	-23.70539855957032	935.4614868164065	-1065.790649414063	-101.510368347168	871.9394531250002	-1259.699829101563	-111.6372680664063	824.635681152344	-1263.13720703125	-133.7536773681641	846.3403930664065	-1314.520751953125	-179.5612487792969	802.6768188476565	-1353.143676757813	-240.6234436035157	865.4727783203127	-1347.98583984375	-406.3770446777345	742.6764526367189	-1135.610717773438	-392.8747863769532	670.5549926757814	-1172.0283203125	nan	nan	nan	-3.010347843170167	916.7796020507815	-723.7287597656251	-114.2876510620117	848.4047851562502	-527.7595214843751	-136.9259643554688	804.9793701171877	-537.9504394531251	-162.7740325927735	819.8906860351565	-485.5006408691407	-221.0886383056641	780.7053222656252	-462.8746948242189	-275.3049316406251	852.631774902344	-464.1277465820314	-452.6137084960939	734.1668701171876	-659.6814575195314	-429.4495239257814	659.9577636718751	-641.4448852539064	nan	nan	nan	nan	nan	nan	nan	nan	nan	-494.5149536132814	780.239685058594	-908.6826171875002	-518.6015625000001	770.2927856445315	-939.0826416015627	-529.7803344726564	767.5607299804689	-885.2044677734377	-326.3899841308594	571.3618164062501	-1184.725708007813	-299.9721374511719	608.9763793945314	-1166.565063476563	-294.8383789062501	522.4088745117189	-1202.584716796875	-158.1778564453125	472.0314941406251	-1231.564697265625	-115.7674789428711	426.8582153320314	-1111.130737304688	-203.4583740234376	260.6192321777344	-1178.09375	-274.7491760253907	253.4835510253907	-1236.341552734375	-244.0997314453126	230.3679809570313	-1211.5771484375	-286.8627624511719	165.2069244384766	-1178.247314453125	-407.6956176757814	105.8587341308594	-1205.196533203125	-461.4436950683595	49.56725311279298	-1147.507202148438	-250.6196899414063	54.38927459716798	-1201.74560546875	-263.1786499023438	61.27643203735353	-1243.047607421875	-357.2207641601563	92.52590179443361	-1132.88427734375	-324.9408264160157	527.1237792968751	-615.4675292968751	-257.0088195800782	545.3460083007814	-600.7154541015626	-241.5928802490235	573.3987426757814	-613.3513793945314	-200.4622650146485	486.162811279297	-588.9141235351564	-165.2597198486328	449.5638732910157	-579.9780883789064	-112.8049087524414	429.9317932128907	-697.0381469726564	-173.3277435302735	318.8515014648438	-593.6761474609376	-277.5344238281251	286.5055236816407	-586.0386962890626	-238.9383239746094	260.3881835937501	-596.8690185546876	-245.2297363281251	217.6480712890626	-636.5031738281251	-401.3800659179689	98.98651123046878	-630.3551025390626	-350.9569396972657	86.49536895751955	-706.3818359375001	-455.7027893066407	48.39055252075197	-696.4848022460939	-247.0125122070313	58.64961624145509	-605.7476196289064	-263.7265625000001	61.25770950317384	-571.6857910156251	-295.8626098632813	43.19446182250977	-530.9675903320314	-406.0835876464845	573.5812377929689	-1158.254760742188	
681	3.4	56.15177154541017	1191.43701171875	-903.124206542969	-84.25954437255861	1082.921997070313	-970.9548339843752	-92.47977447509767	1083.8515625	-826.296325683594	-145.7912139892578	1031.115600585938	-897.5864257812502	-388.5901489257814	841.2908935546877	-904.425476074219	-38.03203201293946	875.6636962890627	-891.6890869140627	-23.65057754516602	935.3803710937502	-1065.922119140625	-101.3734741210938	871.8071899414065	-1259.73828125	-111.5248641967774	824.4581298828127	-1263.155029296875	-133.6548919677735	846.1887817382815	-1314.56396484375	-179.3827362060547	802.577331542969	-1353.138305664063	-240.5081176757813	865.309020996094	-1348.043090820313	-406.2423706054689	742.6538696289064	-1135.67529296875	-392.8424072265626	670.4736328125001	-1172.0537109375	nan	nan	nan	-2.839590787887574	916.6467285156252	-723.7539672851564	-114.1072540283203	848.330017089844	-527.7720336914064	-136.7867279052735	804.9121093750002	-538.0252685546876	-162.5811614990235	819.840026855469	-485.5375061035157	-220.9759826660157	780.7252197265627	-462.8900146484376	-275.1950378417969	852.6458129882815	-464.2122802734376	-452.478240966797	734.1550292968751	-659.6748046875001	-429.3626708984376	659.9328613281251	-641.4210205078126	nan	nan	nan	nan	nan	nan	nan	nan	nan	-494.2960510253907	780.1727294921877	-908.694763183594	-518.4508056640626	770.3596191406252	-939.094909667969	-529.6494140625001	767.5575561523439	-885.1947021484377	-326.2811889648438	571.3682250976564	-1184.805786132813	-301.3032226562501	609.5820312500001	-1166.957397460938	-294.6249084472657	522.3999023437501	-1202.537475585938	-158.1519622802735	472.0897827148439	-1231.584228515625	-115.7508850097657	426.8479919433595	-1111.126953125	-203.4257965087891	260.5598754882813	-1178.080810546875	-274.6972045898438	253.4226074218751	-1236.357177734375	-244.0554504394532	230.3428497314454	-1211.637084960938	-286.7861022949219	165.2012939453125	-1178.246459960938	-407.5696716308595	105.8254089355469	-1205.233276367188	-461.4041748046876	49.57601928710939	-1147.50048828125	-250.5777893066407	54.3131790161133	-1201.804565429688	-263.1473083496094	61.27431869506837	-1243.0146484375	-357.1836242675782	92.52758026123048	-1132.886596679688	-324.9064025878907	526.9783325195314	-615.4432373046876	-256.9130859375001	545.3295288085939	-600.7478637695314	-241.5366210937501	573.3416748046876	-613.3277587890626	-200.9061126708985	485.3081359863282	-589.1129150390626	-165.2097778320313	449.5050048828126	-580.0064697265626	-112.7647705078125	429.9465942382814	-697.1003417968751	-173.2723999023438	318.8223266601563	-593.6697387695314	-277.4211730957032	286.5776672363282	-586.0454711914064	-238.8869934082032	260.3965148925782	-596.8526000976564	-245.2217712402344	217.625228881836	-636.5105590820314	-401.3731994628907	98.9661560058594	-630.4018554687501	-351.0230407714844	86.54409027099611	-706.4157714843751	-455.8323974609376	48.5309410095215	-696.4366455078126	-246.9887695312501	58.64004135131837	-605.7354125976564	-263.7185668945313	61.2750701904297	-571.6882324218751	-295.8381652832032	43.21292877197266	-530.9727172851564	-406.0850830078126	573.6634521484376	-1158.307861328125	
682	3.405	56.33192062377931	1191.303466796875	-903.1799316406252	-84.15490722656251	1082.831298828125	-970.910095214844	-92.34123992919923	1083.891967773438	-826.3756103515627	-145.6410675048828	1031.0263671875	-897.655700683594	-388.4358825683595	841.2203369140627	-904.390319824219	-37.86906814575196	875.5329589843752	-891.7144165039065	-23.53744888305664	935.283142089844	-1065.950805664063	-101.0996475219727	871.601257324219	-1259.649536132813	-111.5067749023438	824.3115844726565	-1263.159057617188	-133.8203277587891	846.098327636719	-1314.689086914063	-179.3778991699219	802.209411621094	-1353.138549804688	-240.3409423828126	865.0965576171877	-1348.05029296875	-406.1556701660157	742.6212158203126	-1135.68212890625	-392.7208862304689	670.3976440429689	-1172.085083007813	nan	nan	nan	-2.619457960128785	916.5229492187502	-723.8128051757814	-113.9911727905274	848.276306152344	-527.8582153320314	-136.6359405517578	804.8625488281252	-538.0673217773439	-162.5180358886719	819.8199462890627	-485.6077880859376	-220.879623413086	780.6975708007815	-462.944549560547	-275.0194091796876	852.690368652344	-464.2962646484376	-452.4041137695314	734.1259765625001	-659.6341552734376	-429.2951049804689	659.9389648437501	-641.4806518554689	nan	nan	nan	nan	nan	nan	nan	nan	nan	-494.1860351562501	780.1279296875002	-908.6644287109377	-518.2884521484376	770.3197021484377	-939.0930786132815	-529.3580322265626	767.6204223632814	-885.1893310546877	-326.2524719238282	571.4006958007814	-1184.756958007813	-301.1723937988282	609.5902709960939	-1166.949096679688	-294.7548828125001	522.4467163085939	-1202.560791015625	-158.8851623535157	472.3064880371095	-1231.850341796875	-115.6438140869141	426.8235473632814	-1111.126831054688	-203.3754577636719	260.5397338867188	-1178.101196289063	-274.7413330078126	253.437728881836	-1236.359619140625	-244.1056823730469	230.3339843750001	-1211.64208984375	-287.3023071289063	165.3085479736328	-1178.707397460938	-407.5905151367189	105.795883178711	-1205.197143554688	-461.421600341797	49.56559371948244	-1147.462768554688	-250.6348724365235	54.36461639404298	-1201.70166015625	-263.1149291992188	61.25625610351564	-1242.998168945313	-357.1571044921876	92.5258026123047	-1132.905029296875	-324.8311462402344	526.9198608398439	-615.4857177734376	-256.8576965332032	545.2935180664064	-600.7528076171876	-241.4257812500001	573.3225708007814	-613.3389892578126	-200.3416442871094	486.0691833496095	-588.8833007812501	-165.1340942382813	449.4844055175782	-579.9675903320314	-112.6943130493164	429.8056640625001	-697.0832519531251	-173.2105255126953	318.7824707031251	-593.7058105468751	-277.4225158691407	286.5722351074219	-586.0805053710939	-238.8790893554688	260.3307495117188	-596.9078979492189	-245.1745758056641	217.5805969238282	-636.5397338867189	-401.393768310547	98.96836853027347	-630.4331054687501	-351.0711364746094	86.60641479492189	-706.3910522460939	-455.7025146484376	48.41257858276369	-696.4830322265626	-246.9968261718751	58.62147903442384	-605.7144165039064	-263.6893005371094	61.27939987182619	-571.6827392578126	-295.8427429199219	43.2226676940918	-530.9471435546876	-405.995819091797	573.6647949218751	-1158.308227539063	
